# xmcd
#
# Track frame offsets:
#	150
#	20230
#	37022
#	53630
#	75287
#	89467
#	106665
#	127832
#	149142
#	167727
#	182972
#	200252
#
# Disc length: 2837 seconds
#
# Revision: 2
# Processed by: cddbd v1.5.1PL0 Copyright (c) Steve Scherf et al.
# Submitted via: audiograbber 1.83.01
#
DISCID=9e0b130c
DTITLE=Emre Saltik - Dardayim
DYEAR=1900
DGENRE=
TTITLE0=Gelmedin gülüm
TTITLE1=Dardayim
TTITLE2=Muzurum agliyor
TTITLE3=Oy belali basim
TTITLE4=Güne karsi duran güzel
TTITLE5=Sirdas hücreler
TTITLE6=Sensin efendim
TTITLE7=Kardes acisi
TTITLE8=Hozat yolu
TTITLE9=Dilber
TTITLE10=Yükesk daglar
TTITLE11=Hüseyin'e varir
EXTD=
EXTT0=
EXTT1=
EXTT2=
EXTT3=
EXTT4=
EXTT5=
EXTT6=
EXTT7=
EXTT8=
EXTT9=
EXTT10=
EXTT11=
PLAYORDER=
